<svg width="20" height="19" viewBox="0 0 20 19" fill="none" xmlns="http://www.w3.org/2000/svg">
<path d="M3.55 14.5846C4.6 13.9001 5.64167 13.3751 6.675 13.0095C7.70833 12.6439 8.81667 12.4611 10 12.4611C11.1833 12.4611 12.2958 12.6439 13.3375 13.0095C14.3792 13.3751 15.425 13.9001 16.475 14.5846C17.2083 13.7445 17.7292 12.8967 18.0375 12.041C18.3458 11.1854 18.5 10.2831 18.5 9.33415C18.5 7.07839 17.6875 5.19212 16.0625 3.67532C14.4375 2.15852 12.4167 1.40012 10 1.40012C7.58333 1.40012 5.5625 2.15852 3.9375 3.67532C2.3125 5.19212 1.5 7.07839 1.5 9.33415C1.5 10.2831 1.65833 11.1854 1.975 12.041C2.29167 12.8967 2.81667 13.7445 3.55 14.5846ZM9.99535 10.0342C9.03178 10.0342 8.22083 9.72551 7.5625 9.10812C6.90417 8.49073 6.575 7.73233 6.575 6.83292C6.575 5.93351 6.90572 5.17656 7.56715 4.56206C8.22858 3.94757 9.04108 3.64032 10.0047 3.64032C10.9682 3.64032 11.7792 3.94901 12.4375 4.5664C13.0958 5.1838 13.425 5.9422 13.425 6.8416C13.425 7.74101 13.0943 8.49796 12.4329 9.11246C11.7714 9.72696 10.9589 10.0342 9.99535 10.0342ZM10.0117 18.6683C8.63723 18.6683 7.34167 18.4233 6.125 17.9332C4.90833 17.4432 3.84583 16.7742 2.9375 15.9264C2.02917 15.0785 1.3125 14.0886 0.7875 12.9566C0.2625 11.8246 0 10.615 0 9.32794C0 8.04085 0.2625 6.83337 0.7875 5.7055C1.3125 4.57762 2.02917 3.58976 2.9375 2.74191C3.84583 1.89405 4.90638 1.22511 6.11915 0.735064C7.33192 0.245021 8.62775 0 10.0066 0C11.3855 0 12.6792 0.245021 13.8875 0.735064C15.0958 1.22511 16.1542 1.89405 17.0625 2.74191C17.9708 3.58976 18.6875 4.57787 19.2125 5.70624C19.7375 6.83462 20 8.04028 20 9.32322C20 10.6062 19.7375 11.8155 19.2125 12.9511C18.6875 14.0868 17.9708 15.0785 17.0625 15.9264C16.1542 16.7742 15.0956 17.4432 13.8867 17.9332C12.6778 18.4233 11.3862 18.6683 10.0117 18.6683ZM10 17.2682C10.9167 17.2682 11.8125 17.1437 12.6875 16.8948C13.5625 16.6459 14.425 16.2103 15.275 15.588C14.425 15.028 13.5583 14.6002 12.675 14.3046C11.7917 14.009 10.9 13.8612 10 13.8612C9.1 13.8612 8.20833 14.009 7.325 14.3046C6.44167 14.6002 5.575 15.028 4.725 15.588C5.575 16.2103 6.4375 16.6459 7.3125 16.8948C8.1875 17.1437 9.08333 17.2682 10 17.2682ZM10 8.63409C10.5667 8.63409 11.0292 8.46685 11.3875 8.13237C11.7458 7.7979 11.925 7.3662 11.925 6.83726C11.925 6.30833 11.7458 5.87662 11.3875 5.54215C11.0292 5.20768 10.5667 5.04044 10 5.04044C9.43333 5.04044 8.97083 5.20768 8.6125 5.54215C8.25417 5.87662 8.075 6.30833 8.075 6.83726C8.075 7.3662 8.25417 7.7979 8.6125 8.13237C8.97083 8.46685 9.43333 8.63409 10 8.63409Z" fill="white"/>
</svg>
