<svg width="38" height="38" viewBox="0 0 38 38" fill="none" xmlns="http://www.w3.org/2000/svg">
<path d="M19 2.28003C9.77479 2.28003 2.28 9.77482 2.28 19C2.28 27.3746 8.45692 34.3052 16.5018 35.5137L17.3746 35.6458V22.4705H13.4247V19.7957H17.3746V16.2435C17.3746 14.0562 17.8995 12.6156 18.7684 11.7117C19.6374 10.8079 20.9213 10.3521 22.708 10.3521C24.1366 10.3521 24.6924 10.4386 25.221 10.5035V12.6929H23.3611C22.3058 12.6929 21.4399 13.2817 20.9905 14.066C20.5412 14.8502 20.4012 15.7866 20.4012 16.7408V19.7942H25.0548L24.6406 22.469H20.4012V35.6666L21.2637 35.5493C29.4229 34.4427 35.72 27.4564 35.72 19C35.72 9.77482 28.2252 2.28003 19 2.28003ZM19 3.80003C27.4037 3.80003 34.2 10.5963 34.2 19C34.2 26.3947 28.9072 32.4762 21.9212 33.8453V23.989H25.9439L26.8271 18.2742H21.9212V16.7408C21.9212 15.9523 22.0655 15.2459 22.3087 14.8215C22.5518 14.3972 22.7862 14.2129 23.3611 14.2129H26.741V9.12745L26.082 9.03839C25.6261 8.97671 24.5854 8.83206 22.708 8.83206C20.6536 8.83206 18.8902 9.39169 17.673 10.6578C16.4557 11.924 15.8546 13.8093 15.8546 16.2435V18.2757H11.9047V23.9905H15.8546V33.7978C8.98091 32.3417 3.8 26.3146 3.8 19C3.8 10.5963 10.5963 3.80003 19 3.80003Z" fill="black"/>
</svg>
