<svg width="38" height="38" viewBox="0 0 38 38" fill="none" xmlns="http://www.w3.org/2000/svg">
<path d="M6.08002 2.28882C4.7976 2.28882 3.67498 2.65355 2.85299 3.31749C2.03099 3.98143 1.52893 4.96516 1.52893 6.03983C1.52893 8.12495 3.39624 9.73891 5.86479 9.83538C5.93441 9.85767 6.00692 9.86967 6.08002 9.87101C7.41273 9.87101 8.54712 9.48036 9.35752 8.7889C10.1679 8.09744 10.6311 7.10054 10.6311 6.03983C10.631 6.02597 10.6305 6.01211 10.6296 5.99827C10.5126 3.89999 8.64485 2.28882 6.08002 2.28882ZM6.08002 3.79101C8.06291 3.79101 9.04089 4.76461 9.12447 6.05913C9.11908 6.69166 8.8742 7.22896 8.38377 7.64741C7.88791 8.07049 7.12231 8.36882 6.08002 8.36882C4.10254 8.36882 3.03111 7.29528 3.03111 6.03983C3.03111 5.41211 3.28905 4.89602 3.79705 4.48569C4.30506 4.07537 5.08244 3.79101 6.08002 3.79101ZM2.28002 11.3999C2.07846 11.3999 1.88516 11.48 1.74264 11.6225C1.60012 11.7651 1.52004 11.9584 1.52002 12.1599V34.1999C1.52004 34.4015 1.60012 34.5948 1.74264 34.7373C1.88516 34.8798 2.07846 34.9599 2.28002 34.9599H9.88002C10.0816 34.9599 10.2749 34.8798 10.4174 34.7373C10.5599 34.5948 10.64 34.4015 10.64 34.1999V27.1046V12.1599C10.64 11.9584 10.5599 11.7651 10.4174 11.6225C10.2749 11.48 10.0816 11.3999 9.88002 11.3999H2.28002ZM13.68 11.3999C13.4785 11.3999 13.2852 11.48 13.1426 11.6225C13.0001 11.7651 12.92 11.9584 12.92 12.1599V34.1999C12.92 34.4015 13.0001 34.5948 13.1426 34.7373C13.2852 34.8798 13.4785 34.9599 13.68 34.9599H21.28C21.4816 34.9599 21.6749 34.8798 21.8174 34.7373C21.9599 34.5948 22.04 34.4015 22.04 34.1999V22.0399V21.8499V21.6599C22.04 20.1821 23.2223 18.9999 24.7 18.9999C26.1778 18.9999 27.36 20.1821 27.36 21.6599V34.1999C27.36 34.4015 27.4401 34.5948 27.5826 34.7373C27.7252 34.8798 27.9185 34.9599 28.12 34.9599H35.72C35.9216 34.9599 36.1149 34.8798 36.2574 34.7373C36.3999 34.5948 36.48 34.4015 36.48 34.1999V21.2799C36.48 18.1438 35.5588 15.6593 34.0056 13.9649C32.4523 12.2705 30.2854 11.3999 27.9582 11.3999C24.991 11.3999 23.1965 12.4837 22.04 13.3771V12.1599C22.04 11.9584 21.9599 11.7651 21.8174 11.6225C21.6749 11.48 21.4816 11.3999 21.28 11.3999H13.68ZM3.04002 12.9199H9.12002V27.1046V33.4399H3.04002V12.9199ZM14.44 12.9199H20.52V14.9253C20.5201 15.0791 20.5668 15.2292 20.6539 15.3559C20.7411 15.4826 20.8646 15.5799 21.0083 15.6349C21.1519 15.6899 21.3088 15.7 21.4583 15.664C21.6078 15.6279 21.7428 15.5474 21.8456 15.433C21.8456 15.433 24.0995 12.9199 27.9582 12.9199C29.9136 12.9199 31.6278 13.6208 32.8849 14.9921C34.1419 16.3634 34.96 18.4387 34.96 21.2799V33.4399H28.88V21.6599C28.881 21.5527 28.8592 21.4464 28.8162 21.3482C28.6475 19.2006 26.8891 17.4799 24.7 17.4799C22.4006 17.4799 20.52 19.3605 20.52 21.6599V21.8499V22.0399V33.4399H14.44V12.9199Z" fill="black"/>
</svg>
