<svg width="45" height="35" viewBox="0 0 45 35" fill="none" xmlns="http://www.w3.org/2000/svg">
<rect opacity="0.45" width="29.2598" height="21.7359" rx="3" transform="matrix(0.866044 0.499967 -0.866044 0.499967 18.8242 9)" fill="url(#paint0_linear_387_374)"/>
<rect width="29.2598" height="21.7359" rx="3" transform="matrix(0.866044 0.499967 -0.866044 0.499967 18.8242 0)" fill="white"/>
<path d="M22.9387 6.40878C22.0616 5.89816 20.8691 5.60945 19.6226 5.60593C18.3761 5.60242 17.1773 5.8844 16.2891 6.39004C15.8534 6.64082 15.5088 6.93921 15.2754 7.26772C15.042 7.59623 14.9245 7.94824 14.9297 8.30311C14.9318 8.45352 15.0362 8.59736 15.2203 8.70364C15.4044 8.80993 15.6535 8.87016 15.9141 8.87137C16.0424 8.8719 16.1696 8.8577 16.2884 8.82958C16.4072 8.80145 16.5151 8.75998 16.6059 8.70756C16.6967 8.65515 16.7685 8.59284 16.8172 8.52427C16.866 8.4557 16.8906 8.38224 16.8896 8.30818C16.8869 8.1011 16.9556 7.89572 17.0917 7.70401C17.2279 7.5123 17.4287 7.3381 17.6826 7.19155C17.9364 7.04501 18.2382 6.92907 18.5702 6.85047C18.9023 6.77188 19.2581 6.73222 19.6168 6.73379C20.346 6.73692 21.0434 6.90538 21.5587 7.20284C22.0739 7.50029 22.3657 7.90292 22.3711 8.32389C22.3739 8.53097 22.3052 8.73635 22.169 8.92806C22.0329 9.11977 21.832 9.29397 21.5782 9.44051C21.3244 9.58705 21.0226 9.703 20.6905 9.78159C20.3585 9.86018 20.0027 9.89985 19.644 9.89827C19.5157 9.89773 19.3884 9.91194 19.2697 9.94006C19.1509 9.96818 19.043 10.0097 18.9522 10.0621C18.8614 10.1145 18.7895 10.1768 18.7408 10.2454C18.6921 10.3139 18.6675 10.3874 18.6684 10.4615C18.6705 10.6119 18.7749 10.7557 18.959 10.862C19.1431 10.9683 19.3922 11.0285 19.6528 11.0297C20.2679 11.0335 20.8783 10.9662 21.4482 10.8319C22.018 10.6976 22.5358 10.4989 22.9711 10.2476C23.847 9.7348 24.3354 9.04274 24.3294 8.32313C24.3233 7.60352 23.8232 6.91509 22.9387 6.40878Z" fill="#00D7D7"/>
<defs>
<linearGradient id="paint0_linear_387_374" x1="33.3636" y1="14.5319" x2="17.7895" y2="34.5054" gradientUnits="userSpaceOnUse">
<stop stop-color="white"/>
<stop offset="1" stop-color="white" stop-opacity="0"/>
</linearGradient>
</defs>
</svg>
