<svg width="38" height="38" viewBox="0 0 38 38" fill="none" xmlns="http://www.w3.org/2000/svg">
<g clip-path="url(#clip0_12_113)">
<path d="M26.0062 4.15625C21.4611 4.15625 17.765 7.85234 17.765 12.3975C17.765 12.6706 17.8333 12.9378 17.86 13.205C12.2401 12.6677 7.27046 9.96016 3.89499 5.81875C3.73765 5.61984 3.49421 5.51297 3.2389 5.53078C2.98655 5.54859 2.76093 5.69406 2.63624 5.91375C1.92671 7.13391 1.51999 8.53813 1.51999 10.0462C1.51999 11.872 2.17312 13.5434 3.18249 14.915C2.98655 14.8289 2.7728 14.7814 2.58874 14.6775C2.35421 14.5528 2.07218 14.5587 1.84358 14.6953C1.61499 14.8319 1.47546 15.0783 1.47249 15.3425V15.4375C1.47249 18.237 2.92124 20.6684 5.05874 22.1588C5.03499 22.1558 5.01124 22.1647 4.98749 22.1588C4.72624 22.1142 4.46202 22.2062 4.28687 22.4052C4.11171 22.6041 4.0553 22.8802 4.13249 23.1325C4.98155 25.7717 7.14874 27.7875 9.83249 28.5238C7.69499 29.7944 5.21608 30.5425 2.54124 30.5425C1.96233 30.5425 1.40718 30.5128 0.854991 30.4475C0.498741 30.4 0.157334 30.6078 0.0385845 30.9462C-0.0831342 31.2847 0.0504596 31.6617 0.356241 31.8487C3.78515 34.0486 7.8553 35.34 12.2312 35.34C19.3236 35.34 24.887 32.3772 28.6187 28.1437C32.3505 23.9103 34.295 18.4122 34.295 13.2762C34.295 13.0595 34.2772 12.8488 34.2712 12.635C35.6636 11.5692 36.9075 10.3194 37.8812 8.85875C38.0742 8.57672 38.0534 8.19969 37.8308 7.93844C37.6111 7.67719 37.24 7.59703 36.9312 7.7425C36.5394 7.91766 36.0822 7.93547 35.6725 8.075C36.2128 7.35359 36.6759 6.57578 36.955 5.7C37.05 5.40016 36.9461 5.07062 36.6997 4.87469C36.4533 4.68172 36.1089 4.65797 35.8387 4.82125C34.5414 5.59016 33.1045 6.13047 31.5875 6.46C30.115 5.0825 28.1764 4.15625 26.0062 4.15625ZM26.0062 5.67625C27.9448 5.67625 29.6964 6.50453 30.9225 7.81375C31.1066 8.00375 31.3767 8.08391 31.635 8.0275C32.6266 7.83156 33.5676 7.54359 34.485 7.1725C33.9566 7.885 33.3034 8.49359 32.5375 8.95375C32.1901 9.12297 32.0269 9.52375 32.1545 9.88891C32.2792 10.2511 32.6592 10.4619 33.0362 10.3787C33.7962 10.2867 34.4731 9.97797 35.1975 9.785C34.5473 10.4886 33.8348 11.1239 33.06 11.685C32.8492 11.8394 32.7334 12.0887 32.7512 12.35C32.7631 12.6587 32.775 12.9645 32.775 13.2762C32.775 18.0262 30.9522 23.183 27.4787 27.1225C24.0053 31.062 18.905 33.82 12.2312 33.82C9.20015 33.82 6.33827 33.1491 3.75249 31.9675C6.95874 31.7211 9.91562 30.587 12.3025 28.7137C12.5519 28.5148 12.6498 28.1823 12.5489 27.8795C12.448 27.5767 12.1689 27.3689 11.8512 27.36C9.34562 27.3155 7.24671 25.8578 6.12749 23.7975C6.16905 23.7975 6.20468 23.7975 6.24624 23.7975C6.99733 23.7975 7.73952 23.7025 8.43124 23.5125C8.76374 23.4145 8.99233 23.1058 8.98046 22.7584C8.96858 22.4111 8.72218 22.1142 8.38374 22.04C5.67921 21.4937 3.65155 19.2909 3.18249 16.5538C3.94843 16.818 4.73218 17.0258 5.58124 17.0525C5.92858 17.0733 6.24327 16.8566 6.35015 16.527C6.45702 16.1975 6.3264 15.8353 6.03249 15.6512C4.22749 14.443 3.03999 12.3856 3.03999 10.0462C3.03999 9.17938 3.26562 8.38375 3.56249 7.62375C7.36249 11.7948 12.6825 14.5647 18.6912 14.8675C18.9287 14.8794 19.1603 14.7814 19.3147 14.6003C19.4691 14.4162 19.5284 14.1728 19.475 13.9412C19.3592 13.4484 19.285 12.9259 19.285 12.3975C19.285 8.67469 22.2834 5.67625 26.0062 5.67625Z" fill="black"/>
</g>
<defs>
<clipPath id="clip0_12_113">
<rect width="38" height="38" fill="white"/>
</clipPath>
</defs>
</svg>
